<svg width="198" height="27" viewBox="0 0 198 27" fill="none" xmlns="http://www.w3.org/2000/svg">
<path fill-rule="evenodd" clip-rule="evenodd" d="M49.0984 10.6483C48.7833 11.036 48.3473 11.2782 47.7419 11.2782H45.9734C45.5616 11.2782 45.2467 10.9631 45.2467 10.5513C45.2467 8.03204 47.7659 7.16016 51.6902 7.16016C55.1786 7.16016 57.9159 8.61359 57.9159 12.3197V19.6354C57.9159 20.0472 57.6008 20.362 57.189 20.362H54.9119C54.5001 20.362 54.1853 20.0472 54.1853 19.6354V19.272C53.0953 20.0472 51.7628 20.6042 49.8976 20.6042C46.7245 20.6042 44.302 19.175 44.302 16.4377C44.302 13.7005 46.7245 12.3197 49.8976 12.3197H53.8219C53.8219 10.4302 53.0224 9.84891 51.3995 9.84891C50.4066 9.84891 49.5102 10.1397 49.0984 10.6483ZM53.8219 16.8496V15.0086H50.1884C49.0499 15.0086 48.3959 15.6384 48.3959 16.4377C48.3959 17.2856 49.0499 17.9155 50.3096 17.9155C51.7628 17.9155 52.9741 17.3825 53.8219 16.8496Z" fill="white"/>
<path d="M66.3482 20.604C62.9568 20.604 61.261 18.9084 61.261 15.2749V4.13193C61.261 3.72009 61.5761 3.40527 61.9879 3.40527H64.6282C65.04 3.40527 65.3549 3.72009 65.3549 4.13193V8.08041H68.6492C69.0611 8.08041 69.376 8.39523 69.376 8.80704V10.2122C69.376 10.6239 69.0611 10.9387 68.6492 10.9387H65.3549V15.2749C65.3549 16.922 66.2026 17.7941 67.4382 17.7941C68.0681 17.7941 68.5282 17.6486 69.0611 17.6486H69.4973C69.9089 17.6486 70.2239 17.9637 70.2239 18.3755V19.6352C70.2239 19.9985 69.9089 20.2892 69.4973 20.3618C68.7704 20.5071 67.4382 20.604 66.3482 20.604Z" fill="white"/>
<path fill-rule="evenodd" clip-rule="evenodd" d="M76.8654 10.6483C76.5503 11.036 76.1143 11.2782 75.5087 11.2782H73.7404C73.3285 11.2782 73.0137 10.9631 73.0137 10.5513C73.0137 8.03204 75.5329 7.16016 79.4572 7.16016C82.9454 7.16016 85.6827 8.61359 85.6827 12.3197V19.6354C85.6827 20.0472 85.3678 20.362 84.9559 20.362H82.6788C82.2671 20.362 81.9523 20.0472 81.9523 19.6354V19.272C80.8623 20.0472 79.5298 20.6042 77.6646 20.6042C74.4913 20.6042 72.069 19.175 72.069 16.4377C72.069 13.7005 74.4913 12.3197 77.6646 12.3197H81.5889C81.5889 10.4302 80.7894 9.84891 79.1664 9.84891C78.1734 9.84891 77.2772 10.1397 76.8654 10.6483ZM81.5889 16.8496V15.0086H77.9554C76.8168 15.0086 76.1628 15.6384 76.1628 16.4377C76.1628 17.2856 76.8168 17.9155 78.0764 17.9155C79.5298 17.9155 80.7411 17.3825 81.5889 16.8496Z" fill="white"/>
<path d="M98.5488 12.8527C98.5488 10.8419 97.6284 10.0186 96.2961 10.0186C95.1091 10.0186 93.995 10.8419 93.1229 11.7141V19.6354C93.1229 20.0472 92.8079 20.362 92.3961 20.362H89.7558C89.344 20.362 89.029 20.0472 89.029 19.6354V8.12912C89.029 7.71719 89.344 7.4024 89.7558 7.4024H92.3961C92.8079 7.4024 93.1229 7.71719 93.1229 8.12912V8.87982C94.2372 7.9353 95.4483 7.16016 97.2653 7.16016C100.414 7.16016 102.643 8.83157 102.643 12.8527V19.6354C102.643 20.0472 102.328 20.362 101.916 20.362H99.2756C98.8636 20.362 98.5488 20.0472 98.5488 19.6354V12.8527Z" fill="white"/>
<path fill-rule="evenodd" clip-rule="evenodd" d="M110.057 10.6483C109.742 11.036 109.306 11.2782 108.701 11.2782H106.932C106.521 11.2782 106.206 10.9631 106.206 10.5513C106.206 8.03204 108.725 7.16016 112.649 7.16016C116.137 7.16016 118.875 8.61359 118.875 12.3197V19.6354C118.875 20.0472 118.56 20.362 118.148 20.362H115.871C115.459 20.362 115.144 20.0472 115.144 19.6354V19.272C114.054 20.0472 112.722 20.6042 110.857 20.6042C107.683 20.6042 105.261 19.175 105.261 16.4377C105.261 13.7005 107.683 12.3197 110.857 12.3197H114.781C114.781 10.4302 113.981 9.84891 112.358 9.84891C111.365 9.84891 110.469 10.1397 110.057 10.6483ZM114.781 16.8496V15.0086H111.147C110.009 15.0086 109.355 15.6384 109.355 16.4377C109.355 17.2856 110.009 17.9155 111.268 17.9155C112.722 17.9155 113.933 17.3825 114.781 16.8496Z" fill="white"/>
<path fill-rule="evenodd" clip-rule="evenodd" d="M32.5984 3.40527H27.1277L27.1073 3.47726L24.871 11.3738V19.2719C24.871 19.8774 25.3797 20.3618 25.9853 20.3618H32.5984C39.5022 20.3618 42.4091 17.6729 42.4091 11.8835C42.4091 6.09406 39.5022 3.40527 32.5984 3.40527ZM32.4773 17.019H29.3282V6.7482H32.4773C36.8134 6.7482 37.9519 8.24997 37.9519 11.8835C37.9519 15.5172 36.8134 17.019 32.4773 17.019Z" fill="white"/>
<path d="M18.303 20.4567H16.231L20.701 4.67334C20.9813 3.68335 21.885 3 22.9139 3H24.986L20.5159 18.7834C20.2356 19.7734 19.3319 20.4567 18.303 20.4567Z" fill="#CA5122"/>
<path d="M12.188 20.4567H10.116L14.586 4.67334C14.8664 3.68335 15.7701 3 16.799 3H18.871L14.401 18.7834C14.1206 19.7734 13.2169 20.4567 12.188 20.4567Z" fill="#D88759"/>
<path d="M6.07207 20.4567H4L8.47007 4.67334C8.7504 3.68335 9.65411 3 10.6831 3H12.7551L8.28499 18.7834C8.00465 19.7734 7.10096 20.4567 6.07207 20.4567Z" fill="#E9BD9C"/>
</svg>
