<?xml version="1.0" encoding="UTF-8" standalone="no"?><!-- Generator: Gravit.io --><svg xmlns="http://www.w3.org/2000/svg" xmlns:xlink="http://www.w3.org/1999/xlink" style="isolation:isolate" viewBox="0 0 32 8" width="32pt" height="8pt"><defs><clipPath id="_clipPath_yPUzQX960FsvHwsKt2KyuuRFQBW9aFNx"><rect width="32" height="8"/></clipPath></defs><g clip-path="url(#_clipPath_yPUzQX960FsvHwsKt2KyuuRFQBW9aFNx)"><path d=" M 32 7.998 L 32 7.998 C 29.857 7.99 28.593 7.944 27.409 7.685 C 26.134 7.407 24.931 6.948 23.857 6.331 C 22.644 5.636 21.662 4.926 19.698 2.991 L 17.728 1.05 L 17.728 1.05 C 17.136 0.467 16.84 0.175 16.484 0.07 C 16.172 -0.023 15.828 -0.023 15.516 0.07 C 15.16 0.175 14.864 0.467 14.272 1.05 L 14.272 1.05 L 12.301 2.992 C 10.338 4.926 9.356 5.636 8.144 6.331 C 7.069 6.948 5.866 7.407 4.59 7.685 C 3.407 7.944 2.143 7.99 0 7.998 L 32 7.998 L 32 7.998 Z " fill="rgb(53,55,55)"/></g></svg>