<svg width="30" height="30" viewBox="0 0 30 30" fill="none" xmlns="http://www.w3.org/2000/svg">
<mask id="mask0" mask-type="alpha" maskUnits="userSpaceOnUse" x="7" y="3" width="16" height="23">
<path fill-rule="evenodd" clip-rule="evenodd" d="M12 15.0001H9.17998C8.16749 15.0001 7.66124 15.0001 7.39223 14.7942C7.1477 14.6071 7.00302 14.3177 7.00003 14.0098C6.99674 13.6711 7.30048 13.2661 7.90798 12.4561L13.728 4.69608L13.728 4.69608L13.728 4.69607C14.1549 4.12688 14.3683 3.84228 14.6289 3.73815C14.8671 3.64295 15.1328 3.64295 15.3711 3.73815C15.6316 3.84228 15.8451 4.12688 16.272 4.69608L22.092 12.4561C22.6995 13.2661 23.0032 13.6711 22.9999 14.0098C22.9969 14.3177 22.8523 14.6071 22.6077 14.7942C22.3387 15.0001 21.8325 15.0001 20.82 15.0001H18V24.0001C18 25.1046 17.1046 26.0001 16 26.0001H14C12.8954 26.0001 12 25.1046 12 24.0001V15.0001Z" fill="white"/>
</mask>
<g mask="url(#mask0)">
<mask id="path-2-inside-1" fill="white">
<path fill-rule="evenodd" clip-rule="evenodd" d="M12 15.0001H9.17998C8.16749 15.0001 7.66124 15.0001 7.39223 14.7942C7.1477 14.6071 7.00302 14.3177 7.00003 14.0098C6.99674 13.6711 7.30048 13.2661 7.90798 12.4561L13.728 4.69608L13.728 4.69608L13.728 4.69607C14.1549 4.12688 14.3683 3.84228 14.6289 3.73815C14.8671 3.64295 15.1328 3.64295 15.3711 3.73815C15.6316 3.84228 15.8451 4.12688 16.272 4.69608L22.092 12.4561C22.6995 13.2661 23.0032 13.6711 22.9999 14.0098C22.9969 14.3177 22.8523 14.6071 22.6077 14.7942C22.3387 15.0001 21.8325 15.0001 20.82 15.0001H18V24C18 25.1046 17.1045 26 16 26H14C12.8954 26 12 25.1046 12 24V15.0001Z"/>
</mask>
<path fill-rule="evenodd" clip-rule="evenodd" d="M12 15.0001H9.17998C8.16749 15.0001 7.66124 15.0001 7.39223 14.7942C7.1477 14.6071 7.00302 14.3177 7.00003 14.0098C6.99674 13.6711 7.30048 13.2661 7.90798 12.4561L13.728 4.69608L13.728 4.69608L13.728 4.69607C14.1549 4.12688 14.3683 3.84228 14.6289 3.73815C14.8671 3.64295 15.1328 3.64295 15.3711 3.73815C15.6316 3.84228 15.8451 4.12688 16.272 4.69608L22.092 12.4561C22.6995 13.2661 23.0032 13.6711 22.9999 14.0098C22.9969 14.3177 22.8523 14.6071 22.6077 14.7942C22.3387 15.0001 21.8325 15.0001 20.82 15.0001H18V24C18 25.1046 17.1045 26 16 26H14C12.8954 26 12 25.1046 12 24V15.0001Z" fill="white"/>
<path d="M12 15.0001H13V14.0001H12V15.0001ZM7.39223 14.7942L7.99998 14.0001H7.99998L7.39223 14.7942ZM7.00003 14.0098L6.00007 14.0195L7.00003 14.0098ZM7.90798 12.4561L7.10798 11.8561H7.10798L7.90798 12.4561ZM13.728 4.69608L12.9687 4.04529L12.9475 4.07002L12.928 4.09608L13.728 4.69608ZM13.728 4.69608L14.4872 5.34687L14.5421 5.28286L14.5855 5.21057L13.728 4.69608ZM13.728 4.69607L12.928 4.09607L12.897 4.13734L12.8705 4.18158L13.728 4.69607ZM14.6289 3.73815L15 4.66675L15 4.66675L14.6289 3.73815ZM15.3711 3.73815L15 4.66675L15 4.66675L15.3711 3.73815ZM16.272 4.69608L15.472 5.29608V5.29608L16.272 4.69608ZM22.092 12.4561L21.292 13.0561L22.092 12.4561ZM22.9999 14.0098L22 14.0001L22 14.0001L22.9999 14.0098ZM22.6077 14.7942L22 14.0001L22 14.0001L22.6077 14.7942ZM18 15.0001V14.0001H17V15.0001H18ZM9.17998 16.0001H12V14.0001H9.17998V16.0001ZM6.78449 15.5883C7.15475 15.8717 7.59087 15.941 7.91792 15.9703C8.26005 16.001 8.69332 16.0001 9.17998 16.0001V14.0001C8.65414 14.0001 8.32804 13.9991 8.09668 13.9784C7.85023 13.9562 7.89872 13.9226 7.99998 14.0001L6.78449 15.5883ZM6.00007 14.0195C6.00606 14.6353 6.29542 15.2141 6.78449 15.5883L7.99998 14.0001H7.99998L6.00007 14.0195ZM7.10798 11.8561C6.81599 12.2454 6.55525 12.5914 6.37453 12.8836C6.20178 13.1628 5.99554 13.5533 6.00007 14.0195L7.99998 14.0001C8.00122 14.1276 7.94521 14.1462 8.07539 13.9358C8.19759 13.7382 8.39248 13.4768 8.70798 13.0561L7.10798 11.8561ZM12.928 4.09608L7.10798 11.8561L8.70798 13.0561L14.528 5.29608L12.928 4.09608ZM12.9687 4.04529L12.9687 4.04529L14.4872 5.34687L14.4872 5.34687L12.9687 4.04529ZM12.8705 4.18158L12.8705 4.18158L14.5855 5.21057L14.5855 5.21057L12.8705 4.18158ZM14.2578 2.80956C13.9177 2.94548 13.6759 3.17485 13.4964 3.37505C13.3209 3.57071 13.1305 3.82609 12.928 4.09607L14.528 5.29607C14.7524 4.99685 14.8822 4.82534 14.9853 4.71038C15.0843 4.59995 15.0795 4.63495 15 4.66675L14.2578 2.80956ZM15.7422 2.80956C15.2657 2.61914 14.7343 2.61914 14.2578 2.80956L15 4.66675H15L15.7422 2.80956ZM17.072 4.09608C16.8695 3.8261 16.6791 3.57071 16.5036 3.37505C16.3241 3.17485 16.0823 2.94548 15.7422 2.80956L15 4.66675C14.9204 4.63495 14.9156 4.59995 15.0147 4.71038C15.1178 4.82535 15.2476 4.99686 15.472 5.29608L17.072 4.09608ZM22.892 11.8561L17.072 4.09608L15.472 5.29608L21.292 13.0561L22.892 11.8561ZM23.9999 14.0195C24.0044 13.5533 23.7982 13.1628 23.6254 12.8836C23.4447 12.5914 23.184 12.2454 22.892 11.8561L21.292 13.0561C21.6075 13.4768 21.8024 13.7382 21.9246 13.9358C22.0548 14.1462 21.9987 14.1276 22 14.0001L23.9999 14.0195ZM23.2155 15.5883C23.7045 15.2141 23.9939 14.6353 23.9999 14.0195L22 14.0001L22 14.0001L23.2155 15.5883ZM20.82 16.0001C21.3066 16.0001 21.7399 16.001 22.082 15.9703C22.4091 15.941 22.8452 15.8717 23.2155 15.5883L22 14.0001C22.1012 13.9226 22.1497 13.9562 21.9033 13.9784C21.6719 13.9991 21.3458 14.0001 20.82 14.0001V16.0001ZM18 16.0001H20.82V14.0001H18V16.0001ZM17 15.0001V24H19V15.0001H17ZM17 24C17 24.5523 16.5523 25 16 25L16 27C17.6568 27 19 25.6569 19 24H17ZM16 25H14V27H16L16 25ZM14 25C13.4477 25 13 24.5523 13 24H11C11 25.6569 12.3431 27 14 27V25ZM13 24V15.0001H11V24H13Z" fill="white" mask="url(#path-2-inside-1)"/>
<path d="M24 12L16.272 1.696C15.8451 1.1268 15.6316 0.842197 15.3711 0.738072C15.1329 0.642864 14.8671 0.642864 14.6289 0.738072C14.3684 0.842197 14.1549 1.1268 13.728 1.696L6 12" stroke="#CA5122" stroke-width="2"/>
<path d="M24 21L16.272 10.696C15.8451 10.1268 15.6316 9.8422 15.3711 9.73807C15.1329 9.64286 14.8671 9.64286 14.6289 9.73807C14.3684 9.8422 14.1549 10.1268 13.728 10.696L6 21" stroke="#CA5122" stroke-width="2"/>
<path d="M24 30L16.272 19.696C15.8451 19.1268 15.6316 18.8422 15.3711 18.7381C15.1329 18.6429 14.8671 18.6429 14.6289 18.7381C14.3684 18.8422 14.1549 19.1268 13.728 19.696L6 30" stroke="#CA5122" stroke-width="2"/>
</g>
</svg>
