<svg width="48" height="48" viewBox="0 0 48 48" fill="none" xmlns="http://www.w3.org/2000/svg">
<path fill-rule="evenodd" clip-rule="evenodd" d="M24 48C37.2548 48 48 37.2548 48 24C48 10.7452 37.2548 0 24 0C10.7452 0 0 10.7452 0 24C0 37.2548 10.7452 48 24 48ZM36.2181 17.9618C36.9252 17.1132 36.8104 15.8521 35.9618 15.145C35.1132 14.438 33.8521 14.5527 33.145 15.4013L23.1841 27.3561L17.915 22.0854C17.134 21.3043 15.8677 21.3041 15.0865 22.085C14.3054 22.866 14.3052 24.1323 15.0861 24.9135L21.904 31.7333C22.3013 32.1307 22.8476 32.3427 23.409 32.3172C23.9704 32.2918 24.4952 32.0313 24.855 31.5995L36.2181 17.9618Z" fill="white"/>
</svg>
