<svg width="24" height="24" viewBox="0 0 24 24" fill="none" xmlns="http://www.w3.org/2000/svg">
<g opacity="0.4">
<path d="M18.8135 11.4828C17.9434 10.431 15.8357 7 12 7C8.16426 7 6.0566 10.431 5.18646 11.4828C4.93785 11.7759 4.93785 12.2069 5.18646 12.5172C6.0566 13.569 8.16426 17 12 17C15.8357 17 17.9434 13.569 18.8135 12.5172C19.0622 12.2241 19.0622 11.7931 18.8135 11.4828ZM12 15.6207C9.94007 15.6207 8.27081 14 8.27081 12C8.27081 10 9.94007 8.37931 12 8.37931C14.0599 8.37931 15.7292 10 15.7292 12C15.7292 14 14.0599 15.6207 12 15.6207Z" fill="#B8BABB"/>
<circle cx="12" cy="12" r="2" fill="#B8BABB"/>
</g>
</svg>
