<svg width="24" height="24" viewBox="0 0 24 24" fill="none" xmlns="http://www.w3.org/2000/svg">
<g opacity="0.4">
<path fill-rule="evenodd" clip-rule="evenodd" d="M4.49797 6.32649C4.10745 5.93597 4.10745 5.3028 4.49797 4.91228C4.8885 4.52175 5.52166 4.52175 5.91218 4.91228L7.34081 6.3409C7.34159 6.34168 7.34236 6.34246 7.34314 6.34324L8.85228 7.85237L9.96515 8.96524L11.1768 10.1768L13.8232 12.8233L15.0643 14.0644L16.3225 15.3226L18.6568 17.6569C19.0474 18.0475 19.0474 18.6806 18.6568 19.0712C18.2663 19.4617 17.6332 19.4617 17.2426 19.0712L14.6007 16.4293C13.8404 16.7779 12.9761 17.0001 12 17.0001C8.61432 17.0001 6.57499 14.327 5.54465 12.9764C5.40769 12.7969 5.28855 12.6408 5.18646 12.5173C4.93784 12.207 4.93784 11.776 5.18646 11.4829C5.28855 11.3595 5.40768 11.2033 5.54464 11.0238L5.54465 11.0238L5.54465 11.0238C5.94819 10.4948 6.5065 9.76301 7.23984 9.06836L4.49797 6.32649ZM17.7264 13.898C18.0102 13.5599 18.2524 13.2425 18.4553 12.9765L18.4553 12.9764C18.5923 12.7969 18.7114 12.6408 18.8135 12.5173C19.0622 12.2242 19.0622 11.7932 18.8135 11.4829C18.7115 11.3595 18.5924 11.2034 18.4554 11.0239L18.4554 11.0238L18.4553 11.0238C17.425 9.67322 15.3857 7.00011 12 7.00011C11.6242 7.00011 11.2649 7.03305 10.9218 7.09346L12.2136 8.38525C14.1399 8.4908 15.6748 10.0152 15.7278 11.8994L17.7264 13.898ZM8.27081 12.0001C8.27081 11.4473 8.39833 10.9235 8.62637 10.4549L10.0067 11.8352C10.0023 11.8896 10 11.9446 10 12.0001C10 13.1047 10.8954 14.0001 12 14.0001C12.0555 14.0001 12.1105 13.9978 12.1649 13.9934L13.4913 15.3198C13.0346 15.5134 12.5302 15.6208 12 15.6208C9.94006 15.6208 8.27081 14.0001 8.27081 12.0001Z" fill="#B8BABB"/>
</g>
</svg>
