<svg width="24" height="24" viewBox="0 0 24 24" fill="none" xmlns="http://www.w3.org/2000/svg">
<path d="M5 8H10.34C11.7207 8 12.84 6.88071 12.84 5.5V5.5C12.84 4.11929 11.7207 3 10.34 3H9.95999" stroke="white" stroke-width="2" stroke-linecap="round"/>
<path d="M10 16C12.2755 16 14.4186 16 15.981 16C17.3617 16 18.48 17.1193 18.48 18.5V18.5C18.48 19.8807 17.3607 21 15.98 21H15.6" stroke="white" stroke-width="2" stroke-linecap="round"/>
<path d="M6 16H4" stroke="white" stroke-width="2" stroke-linecap="round"/>
<path d="M9 11.96H16.88C18.2055 11.96 19.28 10.8855 19.28 9.56003V9.56003C19.28 8.23455 18.2055 7.16003 16.88 7.16003H16.4" stroke="white" stroke-width="2" stroke-linecap="round"/>
<path d="M5 12H2" stroke="white" stroke-width="2" stroke-linecap="round"/>
</svg>
